<?xml version="1.0" encoding="UTF-8"?>
<svg xmlns="http://www.w3.org/2000/svg" viewBox="0 0 1500 500" width="1500" height="500">
  <rect width="1500" height="500" fill="#F9F4F5"/>
  <g style="mix-blend-mode: multiply">
    <ellipse cx="820" cy="260" rx="260" ry="200" fill="#FFB6C6"/>
  </g>
  <g style="mix-blend-mode: multiply">
    <rect x="1050" y="50" width="320" height="160" rx="70" fill="#FFCE02" transform="rotate(8 1210.0 130.0)"/>
  </g>
  <g style="mix-blend-mode: multiply">
    <ellipse cx="200" cy="310" rx="200" ry="160" fill="#00A6DB"/>
  </g>
  <g style="mix-blend-mode: multiply">
    <ellipse cx="1380" cy="220" rx="150" ry="130" fill="#FFB6C6"/>
  </g>
  <g style="mix-blend-mode: multiply">
    <ellipse cx="60" cy="140" rx="120" ry="100" fill="#FFCE02"/>
  </g>
  <g style="mix-blend-mode: multiply">
    <circle cx="260" cy="190" r="90" fill="#007C35"/>
  </g>
  <g style="mix-blend-mode: multiply">
    <circle cx="320" cy="125" r="18" fill="#F95838"/>
  </g>
  <g style="mix-blend-mode: multiply">
    <ellipse cx="530" cy="280" rx="100" ry="75" fill="#FFB6C6"/>
  </g>
  <g style="mix-blend-mode: multiply">
    <rect x="700" y="150" width="200" height="220" rx="60" fill="#007C35"/>
  </g>
  <g style="mix-blend-mode: multiply">
    <circle cx="870" cy="200" r="70" fill="#FFCE02"/>
  </g>
  <g style="mix-blend-mode: multiply">
    <circle cx="780" cy="170" r="22" fill="#F95838"/>
  </g>
  <g style="mix-blend-mode: multiply">
    <ellipse cx="1150" cy="300" rx="110" ry="80" fill="#FFCE02"/>
  </g>
  <g style="mix-blend-mode: multiply">
    <circle cx="1350" cy="180" r="75" fill="#FFB6C6"/>
  </g>
  <g style="mix-blend-mode: multiply">
    <circle cx="1380" cy="230" r="30" fill="#00A6DB"/>
  </g>
  <g style="mix-blend-mode: multiply">
    <circle cx="1310" cy="150" r="20" fill="#F95838"/>
  </g>
  <g style="mix-blend-mode: multiply">
    <circle cx="450" cy="130" r="35" fill="#00A6DB"/>
  </g>
  <g style="mix-blend-mode: multiply">
    <circle cx="1020" cy="250" r="45" fill="#F95838"/>
  </g>
  <g style="mix-blend-mode: multiply">
    <circle cx="100" cy="370" r="30" fill="#007C35"/>
  </g>
  <g style="mix-blend-mode: multiply">
    <circle cx="1430" cy="380" r="25" fill="#007C35"/>
  </g>
  <g style="mix-blend-mode: multiply">
    <rect x="580" y="100" width="80" height="50" rx="25" fill="#F95838"/>
  </g>
  <g style="mix-blend-mode: multiply">
    <rect x="1250" y="350" width="100" height="60" rx="30" fill="#00A6DB"/>
  </g>
  <g style="mix-blend-mode: multiply">
    <circle cx="147.9" cy="34.5" r="5" fill="#00A6DB"/>
    <circle cx="69.0" cy="55.1" r="5" fill="#F95838"/>
    <circle cx="155.3" cy="190.6" r="5" fill="#F95838"/>
    <circle cx="138.1" cy="35.7" r="5" fill="#F95838"/>
    <circle cx="63.7" cy="121.0" r="5" fill="#F95838"/>
    <circle cx="132.2" cy="158.9" r="5" fill="#FFB6C6"/>
    <circle cx="103.9" cy="110.9" r="5" fill="#00A6DB"/>
    <circle cx="181.9" cy="31.2" r="5" fill="#007C35"/>
    <circle cx="159.6" cy="91.2" r="5" fill="#007C35"/>
    <circle cx="63.1" cy="167.4" r="5" fill="#F95838"/>
    <circle cx="38.5" cy="47.4" r="5" fill="#00A6DB"/>
    <circle cx="140.7" cy="175.3" r="5" fill="#FFCE02"/>
  </g>
  <g style="mix-blend-mode: multiply">
    <circle cx="454.1" cy="206.0" r="5" fill="#FFCE02"/>
    <circle cx="339.7" cy="104.0" r="5" fill="#FFB6C6"/>
    <circle cx="541.4" cy="114.2" r="5" fill="#007C35"/>
    <circle cx="496.1" cy="66.9" r="5" fill="#007C35"/>
    <circle cx="513.3" cy="207.8" r="5" fill="#007C35"/>
    <circle cx="536.6" cy="117.0" r="5" fill="#FFCE02"/>
    <circle cx="478.9" cy="114.7" r="5" fill="#00A6DB"/>
    <circle cx="408.8" cy="160.5" r="5" fill="#F95838"/>
    <circle cx="472.3" cy="85.7" r="5" fill="#007C35"/>
    <circle cx="360.9" cy="116.9" r="5" fill="#FFB6C6"/>
    <circle cx="374.9" cy="108.6" r="5" fill="#F95838"/>
    <circle cx="377.3" cy="64.8" r="5" fill="#00A6DB"/>
    <circle cx="420.3" cy="69.9" r="5" fill="#FFB6C6"/>
    <circle cx="539.1" cy="107.2" r="5" fill="#FFCE02"/>
    <circle cx="418.9" cy="197.2" r="5" fill="#FFCE02"/>
  </g>
  <g style="mix-blend-mode: multiply">
    <circle cx="648.6" cy="96.8" r="5" fill="#FFB6C6"/>
    <circle cx="727.8" cy="169.6" r="5" fill="#FFCE02"/>
    <circle cx="799.6" cy="127.9" r="5" fill="#007C35"/>
    <circle cx="819.5" cy="96.6" r="5" fill="#FFCE02"/>
    <circle cx="638.2" cy="85.7" r="5" fill="#F95838"/>
    <circle cx="650.6" cy="99.2" r="5" fill="#FFCE02"/>
    <circle cx="739.3" cy="126.2" r="5" fill="#FFB6C6"/>
    <circle cx="819.2" cy="143.5" r="5" fill="#FFB6C6"/>
    <circle cx="792.2" cy="81.4" r="5" fill="#F95838"/>
    <circle cx="756.3" cy="144.4" r="5" fill="#00A6DB"/>
    <circle cx="773.7" cy="120.8" r="5" fill="#00A6DB"/>
    <circle cx="707.0" cy="134.4" r="5" fill="#00A6DB"/>
  </g>
  <g style="mix-blend-mode: multiply">
    <circle cx="1163.0" cy="237.2" r="5" fill="#FFB6C6"/>
    <circle cx="1148.2" cy="256.7" r="5" fill="#00A6DB"/>
    <circle cx="1130.4" cy="191.4" r="5" fill="#007C35"/>
    <circle cx="958.2" cy="237.3" r="5" fill="#FFB6C6"/>
    <circle cx="1158.4" cy="266.0" r="5" fill="#F95838"/>
    <circle cx="1069.7" cy="187.9" r="5" fill="#F95838"/>
    <circle cx="1152.3" cy="258.2" r="5" fill="#00A6DB"/>
    <circle cx="979.9" cy="143.4" r="5" fill="#FFB6C6"/>
    <circle cx="1156.7" cy="115.4" r="5" fill="#FFCE02"/>
    <circle cx="1124.0" cy="276.0" r="5" fill="#FFB6C6"/>
    <circle cx="1111.5" cy="123.1" r="5" fill="#FFCE02"/>
    <circle cx="1156.7" cy="129.7" r="5" fill="#FFB6C6"/>
    <circle cx="1138.1" cy="176.2" r="5" fill="#007C35"/>
    <circle cx="1152.2" cy="235.9" r="5" fill="#007C35"/>
    <circle cx="1098.2" cy="171.8" r="5" fill="#00A6DB"/>
  </g>
  <g style="mix-blend-mode: multiply">
    <circle cx="1309.5" cy="153.2" r="5" fill="#F95838"/>
    <circle cx="1262.0" cy="71.5" r="5" fill="#F95838"/>
    <circle cx="1347.1" cy="101.4" r="5" fill="#007C35"/>
    <circle cx="1201.8" cy="187.4" r="5" fill="#F95838"/>
    <circle cx="1257.2" cy="223.0" r="5" fill="#00A6DB"/>
    <circle cx="1217.7" cy="102.8" r="5" fill="#FFCE02"/>
    <circle cx="1253.6" cy="83.8" r="5" fill="#FFB6C6"/>
    <circle cx="1344.1" cy="103.7" r="5" fill="#FFCE02"/>
    <circle cx="1401.9" cy="94.3" r="5" fill="#F95838"/>
    <circle cx="1364.7" cy="123.8" r="5" fill="#FFCE02"/>
    <circle cx="1316.8" cy="191.2" r="5" fill="#F95838"/>
    <circle cx="1215.2" cy="191.1" r="5" fill="#F95838"/>
  </g>
  <g style="mix-blend-mode: multiply">
    <circle cx="174.6" cy="328.5" r="5" fill="#FFCE02"/>
    <circle cx="142.1" cy="327.5" r="5" fill="#FFCE02"/>
    <circle cx="174.9" cy="438.5" r="5" fill="#FFCE02"/>
    <circle cx="342.4" cy="428.4" r="5" fill="#F95838"/>
    <circle cx="115.2" cy="449.9" r="5" fill="#F95838"/>
    <circle cx="390.7" cy="439.0" r="5" fill="#007C35"/>
    <circle cx="149.9" cy="372.8" r="5" fill="#007C35"/>
    <circle cx="359.4" cy="435.4" r="5" fill="#007C35"/>
    <circle cx="213.7" cy="447.8" r="5" fill="#00A6DB"/>
    <circle cx="378.0" cy="417.8" r="5" fill="#00A6DB"/>
  </g>
  <g style="mix-blend-mode: multiply">
    <circle cx="626.9" cy="464.0" r="5" fill="#FFB6C6"/>
    <circle cx="698.6" cy="398.1" r="5" fill="#007C35"/>
    <circle cx="589.0" cy="465.6" r="5" fill="#FFB6C6"/>
    <circle cx="720.7" cy="338.5" r="5" fill="#00A6DB"/>
    <circle cx="517.1" cy="411.8" r="5" fill="#FFB6C6"/>
    <circle cx="775.8" cy="404.4" r="5" fill="#F95838"/>
    <circle cx="788.2" cy="341.2" r="5" fill="#007C35"/>
    <circle cx="520.6" cy="339.5" r="5" fill="#007C35"/>
    <circle cx="621.1" cy="461.8" r="5" fill="#FFB6C6"/>
    <circle cx="573.9" cy="413.2" r="5" fill="#FFB6C6"/>
  </g>
  <g style="mix-blend-mode: multiply">
    <circle cx="924.6" cy="418.6" r="5" fill="#FFB6C6"/>
    <circle cx="1056.8" cy="460.2" r="5" fill="#007C35"/>
    <circle cx="1100.9" cy="367.1" r="5" fill="#00A6DB"/>
    <circle cx="1018.7" cy="420.8" r="5" fill="#00A6DB"/>
    <circle cx="1037.2" cy="459.4" r="5" fill="#F95838"/>
    <circle cx="902.8" cy="413.2" r="5" fill="#FFB6C6"/>
    <circle cx="1198.8" cy="331.0" r="5" fill="#007C35"/>
    <circle cx="1051.8" cy="339.9" r="5" fill="#00A6DB"/>
    <circle cx="1164.3" cy="451.9" r="5" fill="#00A6DB"/>
    <circle cx="985.5" cy="385.7" r="5" fill="#FFB6C6"/>
  </g>
  <g style="mix-blend-mode: multiply">
    <circle cx="1390.7" cy="397.9" r="5" fill="#FFB6C6"/>
    <circle cx="1251.6" cy="430.7" r="5" fill="#00A6DB"/>
    <circle cx="1436.4" cy="316.6" r="5" fill="#007C35"/>
    <circle cx="1302.9" cy="442.4" r="5" fill="#FFB6C6"/>
    <circle cx="1281.1" cy="345.1" r="5" fill="#007C35"/>
    <circle cx="1393.5" cy="332.6" r="5" fill="#00A6DB"/>
    <circle cx="1351.1" cy="340.2" r="5" fill="#F95838"/>
    <circle cx="1268.5" cy="367.8" r="5" fill="#00A6DB"/>
  </g>
</svg>
